HIERARCHY
ROOT Hips
{
	OFFSET 0.00000 0.00000 0.00000
	CHANNELS 6 Xposition Yposition Zposition Zrotation Yrotation Xrotation 
	JOINT LHipJoint
	{
		OFFSET 0 0 0
		CHANNELS 3 Zrotation Yrotation Xrotation
		JOINT LeftHip
		{
			OFFSET 1.28858 -1.83292 1.03970
			CHANNELS 3 Zrotation Yrotation Xrotation
			JOINT LeftKnee
			{
				OFFSET 2.47846 -6.80952 0.00000
				CHANNELS 3 Zrotation Yrotation Xrotation
				JOINT LeftAnkle
				{
					OFFSET 2.75274 -7.56311 0.00000
					CHANNELS 3 Zrotation Yrotation Xrotation
					JOINT LeftToe
					{
						OFFSET 0.12848 -0.35301 1.68223
						CHANNELS 3 Zrotation Yrotation Xrotation
						End Site
						{
							OFFSET 0.00000 -0.00000 0.87311
						}
					}
				}
			}
		}
	}
	JOINT RHipJoint
	{
		OFFSET 0 0 0
		CHANNELS 3 Zrotation Yrotation Xrotation
		JOINT RightHip
		{
			OFFSET -1.31183 -1.83292 1.03970
			CHANNELS 3 Zrotation Yrotation Xrotation
			JOINT RightKnee
			{
				OFFSET -2.44740 -6.72417 0.00000
				CHANNELS 3 Zrotation Yrotation Xrotation
				JOINT RightAnkle
				{
					OFFSET -2.67343 -7.34519 0.00000
					CHANNELS 3 Zrotation Yrotation Xrotation
					JOINT RightToe
					{
						OFFSET -0.16914 -0.46471 1.77626
						CHANNELS 3 Zrotation Yrotation Xrotation
						End Site
						{
							OFFSET -0.00000 -0.00000 0.92777
						}
					}
				}
			}
		}
	}
	JOINT lowerback
	{
		OFFSET 0 0 0
		CHANNELS 3 Zrotation Yrotation Xrotation
		JOINT Chest
		{
			OFFSET 0.01249 2.14252 0.03842
			CHANNELS 3 Zrotation Yrotation Xrotation
			JOINT Chest2
			{
				OFFSET -0.02957 2.14199 -0.03751
				CHANNELS 3 Zrotation Yrotation Xrotation
				JOINT lowerneck
				{
					OFFSET 0 0 0
					CHANNELS 3 Zrotation Yrotation Xrotation
					JOINT Neck
					{
						OFFSET -0.01678 1.65709 -0.05476
						CHANNELS 3 Zrotation Yrotation Xrotation
						JOINT Head
						{
							OFFSET 0.07912 1.58331 -0.11843
							CHANNELS 3 Zrotation Yrotation Xrotation
							End Site
							{
								OFFSET 0.03298 1.73940 -0.04271
							}
						}
					}
				}
				JOINT LeftCollar
				{
					OFFSET 0 0 0
					CHANNELS 3 Zrotation Yrotation Xrotation
					JOINT LeftShoulder
					{
						OFFSET 3.39556 1.16496 0.08673
CHANNELS 3 Zrotation Xrotation Yrotation
						JOINT LeftElbow
						{
OFFSET 0 -5.239100 -0.000000
CHANNELS 3 Zrotation Xrotation Yrotation
							JOINT LeftWrist
							{
OFFSET 0 -3.314670 0.000000
CHANNELS 3 Zrotation Xrotation Yrotation
								JOINT lhand
								{
									OFFSET 0 0 0
CHANNELS 3 Zrotation Xrotation Yrotation
									JOINT LFingers
									{
OFFSET 0 -0.965900 0.000000
CHANNELS 3 Zrotation Xrotation Yrotation
										End Site
										{
OFFSET 0 -0.778730 0.000000
										}
									}
								}
								JOINT LThumb
								{
OFFSET 0 0.000000 0.000000
CHANNELS 3 Zrotation Xrotation Yrotation
									End Site
									{
OFFSET 0 -0.790620 0.790620
									}
								}
							}
						}
					}
				}
				JOINT RightCollar
				{
					OFFSET 0 0 0
					CHANNELS 3 Zrotation Yrotation Xrotation
					JOINT RightShoulder
					{
						OFFSET -3.27193 1.31331 0.33940
CHANNELS 3 Zrotation Xrotation Yrotation
						JOINT RightElbow
						{
OFFSET 0 -5.302520 0.000000
CHANNELS 3 Zrotation Xrotation Yrotation
							JOINT RightWrist
							{
OFFSET 0 -3.678750 0.000000
CHANNELS 3 Zrotation Xrotation Yrotation
								JOINT rhand
								{
									OFFSET 0 0 0
CHANNELS 3 Zrotation Xrotation Yrotation
									JOINT RFingers
									{
OFFSET 0 -0.594810 0.000000
CHANNELS 3 Zrotation Xrotation Yrotation
										End Site
										{
OFFSET 0 -0.479550 0.000000
										}
									}
								}
								JOINT RThumb
								{
OFFSET 0 0.000000 0.000000
CHANNELS 3 Zrotation Xrotation Yrotation
									End Site
									{
OFFSET 0 -0.486870 0.486870
									}
								}
							}
						}
					}
				}
			}
		}
	}
}
MOTION
Frames: 10
Frame Time: 0.008333333333333333
6.514198 21.017160 9.262796 -7.440585 -2.473544 52.614432 0.000000 0.000000 0.000000 7.732802 -18.511832 -38.100637 0.096502 -1.994100 -5.489537 -0.424520 18.598304 -22.532490 6.363688 14.703250 46.301812 0.000000 0.000000 0.000000 19.050979 17.012524 -39.463518 -0.039869 1.201279 -3.303837 0.750246 -22.434781 8.808455 -0.050245 0.076164 -0.205363 2.511267 1.570314 15.632392 -1.239549 2.203860 12.276196 -2.964368 1.277840 4.517071 -4.634847 -0.757255 -12.225607 5.934858 -0.629220 1.420527 2.673110 -0.129637 2.607601 0.000000 0.000000 0.000000 9.723621 14.528944 41.397490 0.543373 -0.940594 0.009964 3.069125 56.115596 6.044370 0.000000 0.000000 0.000000 -7.125000 0.000000 0.000000 -17.354954 23.927188 -9.217328 0.000000 0.000000 0.000000 -0.546371 22.347322 -44.670583 -3.496814 -6.030261 -0.184858 -8.539848 32.669790 25.147664 0.000000 0.000000 0.000000 7.125000 0.000000 0.000000 22.427084 53.997693 -5.298228
6.567994 21.393481 9.373789 -5.837556 -2.641632 55.520297 0.000000 0.000000 0.000000 5.817805 -19.340295 -40.801111 0.076506 -1.774499 -4.883212 -0.775161 20.503912 -22.267670 7.601663 15.757151 51.008635 0.000000 0.000000 0.000000 16.079138 15.461972 -42.769353 -0.015407 0.658038 -1.809111 1.475938 -23.594142 1.867764 -0.110334 -1.607509 4.430510 1.713000 1.072343 15.952175 -1.536647 1.502579 11.795987 -2.764103 0.884721 3.746413 -5.803141 -0.849166 -12.280622 7.023574 -0.635259 1.613382 3.089930 -0.094111 2.560402 0.000000 0.000000 0.000000 8.723263 13.136431 47.888271 1.245720 -2.155782 0.028691 3.788575 62.840187 7.631311 0.000000 0.000000 0.000000 -7.125000 0.000000 0.000000 -16.652861 22.402163 -9.423784 0.000000 0.000000 0.000000 -0.346512 21.701766 -42.992950 -3.725043 -6.420183 -0.209574 -10.937743 34.056771 30.895193 0.000000 0.000000 0.000000 7.125000 0.000000 0.000000 24.083453 59.752479 -9.112083
6.607438 21.763592 9.474918 -5.105486 -2.330026 58.191569 0.000000 0.000000 0.000000 5.305201 -19.331478 -43.826461 0.049226 -1.180298 -3.247508 -0.877178 21.048734 -22.135655 8.465307 16.441316 54.206870 0.000000 0.000000 0.000000 14.443866 14.568670 -45.930933 -0.025134 -0.204784 0.564852 1.834072 -24.082895 -2.029999 -0.546153 -3.933542 11.026712 1.713122 0.788107 16.633981 -1.541364 1.162271 11.409019 -2.749728 0.700902 2.940787 -6.006107 -1.029505 -11.760605 6.675600 -0.836084 0.692757 2.996845 -0.213350 2.176232 0.000000 0.000000 0.000000 8.038938 11.261052 53.962172 1.839103 -3.180834 0.053896 4.874991 69.322419 10.500930 0.000000 0.000000 0.000000 -7.125000 0.000000 0.000000 -15.665940 19.598170 -9.770571 0.000000 0.000000 0.000000 -0.135338 20.616215 -41.651643 -3.922227 -6.756563 -0.231978 -12.663873 34.607628 33.540125 0.000000 0.000000 0.000000 7.125000 0.000000 0.000000 24.162747 62.559863 -10.634335
6.634133 22.128189 9.567285 -5.147001 -1.592357 60.654476 0.000000 0.000000 0.000000 6.038201 -18.578989 -47.140366 0.015476 -0.253377 -0.697512 -0.758370 20.384908 -22.121597 8.996469 16.797082 56.065177 0.000000 0.000000 0.000000 13.995733 14.259138 -48.964386 -0.065227 -1.351458 3.719753 1.865741 -23.976013 -3.225039 -1.315694 -6.830119 19.364077 2.422371 0.693709 17.637333 -1.286390 1.142580 11.104867 -2.900459 0.702983 2.104102 -5.351669 -1.288387 -10.729847 5.051560 -1.209918 -1.216861 2.450863 -0.470049 1.492765 0.000000 0.000000 0.000000 7.635314 8.956793 59.665801 2.335704 -4.037008 0.084854 6.287348 75.589387 14.509823 0.000000 0.000000 0.000000 -7.125000 0.000000 0.000000 -14.426037 15.658198 -10.241999 0.000000 0.000000 0.000000 0.085886 19.139861 -40.609060 -4.091837 -7.045389 -0.252329 -13.793342 34.415839 33.429335 0.000000 0.000000 0.000000 7.125000 0.000000 0.000000 22.841286 62.749368 -10.121189
6.645190 22.479022 9.652104 -5.443714 -0.716389 63.079325 0.000000 0.000000 0.000000 7.144577 -17.305035 -50.488866 0.049273 0.869541 2.396400 -0.744371 19.589594 -20.511554 8.849164 16.693167 55.541584 0.000000 0.000000 0.000000 13.969960 14.438321 -52.112412 -0.190094 -2.565479 7.086600 1.605713 -22.940346 -1.212414 -1.198057 -5.416756 15.429769 2.994740 0.733496 18.539054 -0.908102 1.288035 10.925334 -2.869242 0.773745 1.465173 -4.541621 -1.443624 -10.120173 3.568061 -1.484561 -3.074343 1.863729 -0.653669 0.826866 0.000000 0.000000 0.000000 7.457797 6.043656 65.406438 2.606480 -4.503629 0.102615 8.107222 81.289196 17.759902 0.000000 0.000000 0.000000 -7.125000 0.000000 0.000000 -13.096053 12.364198 -10.195680 0.000000 0.000000 0.000000 0.171963 17.253549 -39.489792 -4.465051 -7.677733 -0.303161 -14.689409 33.711694 32.619644 0.000000 0.000000 0.000000 7.125000 0.000000 0.000000 21.179541 62.225214 -9.130539
6.643922 22.819005 9.730971 -5.941584 0.268592 65.474175 0.000000 0.000000 0.000000 8.545261 -15.620042 -53.864637 0.136311 2.146950 5.919044 -0.812986 18.690637 -17.643499 8.167067 16.226915 53.140491 0.000000 0.000000 0.000000 14.277106 15.002726 -55.350747 -0.381781 -3.832586 10.620512 1.115761 -21.172578 3.328605 -0.381114 -0.606147 1.822496 3.459215 0.879050 19.360666 -0.432613 1.563665 10.844031 -2.694607 0.898644 0.982123 -3.608914 -1.517162 -9.842411 2.195341 -1.681020 -4.890730 1.244158 -0.779684 0.174814 0.000000 0.000000 0.000000 7.458508 2.650579 71.176246 2.699253 -4.663191 0.109974 10.248316 86.541950 20.411858 0.000000 0.000000 0.000000 -7.125000 0.000000 0.000000 -11.695064 9.579375 -9.741253 0.000000 0.000000 0.000000 0.151510 15.044093 -38.310079 -4.998751 -8.580852 -0.378020 -15.401499 32.603693 31.259053 0.000000 0.000000 0.000000 7.125000 0.000000 0.000000 19.249573 61.138528 -7.763504
6.658969 23.132750 9.839901 -5.913959 0.608515 67.706700 0.000000 0.000000 0.000000 8.686580 -14.710816 -56.987386 0.346857 3.534119 9.798643 -0.667728 16.665384 -15.831006 7.127987 15.356883 49.210338 0.000000 0.000000 0.000000 13.497881 15.069158 -58.217277 -0.667899 -5.091026 14.199307 0.681510 -18.495736 6.050667 -0.234061 2.534414 -7.025380 3.379309 0.941769 20.127054 -0.213941 1.648252 10.820820 -2.450255 0.919728 0.566817 -3.020671 -1.635316 -9.525323 1.327706 -1.922691 -6.427501 0.862815 -0.915800 -0.374560 0.000000 0.000000 0.000000 7.598862 -0.720772 77.108379 2.733037 -4.721299 0.112641 12.317810 90.021678 24.894873 0.000000 0.000000 0.000000 -7.125000 0.000000 0.000000 -10.626675 4.900260 -9.732892 0.000000 0.000000 0.000000 -0.157913 12.615265 -35.197256 -5.378822 -9.221716 -0.435037 -16.585266 30.724647 30.514504 0.000000 0.000000 0.000000 7.125000 0.000000 0.000000 17.350772 60.729114 -6.770904
6.685411 23.428173 9.969824 -5.519368 0.497978 69.825870 0.000000 0.000000 0.000000 7.948453 -14.343326 -59.933446 0.643650 4.997938 13.927511 -0.373117 13.853613 -14.755638 5.839615 14.204880 44.212406 0.000000 0.000000 0.000000 11.960017 14.787844 -60.824166 -1.019961 -6.343415 17.809447 0.286158 -15.184064 7.502508 -0.554809 4.508739 -12.549653 2.919249 0.946641 20.854878 -0.174608 1.599430 10.838177 -2.157217 0.868317 0.198820 -2.672974 -1.784626 -9.180773 0.812783 -2.195936 -7.769009 0.647833 -1.058970 -0.852231 0.000000 0.000000 0.000000 7.836733 -4.076952 83.153869 2.725627 -4.708561 0.112032 14.337304 92.263260 30.656561 0.000000 0.000000 0.000000 -7.125000 0.000000 0.000000 -9.790548 -1.101684 -10.036029 0.000000 0.000000 0.000000 -0.669130 10.033245 -30.734495 -5.651610 -9.679442 -0.479597 -18.098414 28.307161 30.200151 0.000000 0.000000 0.000000 7.125000 0.000000 0.000000 15.473737 60.792654 -6.039781
6.709278 23.708217 10.102509 -5.508717 1.306759 71.761464 0.000000 0.000000 0.000000 8.035362 -13.523758 -63.073939 1.198747 6.700350 18.931254 -0.305079 12.271217 -11.213044 4.119315 11.820708 35.748431 0.000000 0.000000 0.000000 12.013373 14.623064 -63.008949 -1.566739 -7.749938 22.037005 0.024948 -12.182232 8.502929 -1.327448 6.836121 -19.434934 3.398499 0.893418 21.702438 0.125821 1.655592 10.864165 -2.140781 0.892138 -0.178122 -2.388770 -1.828418 -8.606417 0.528828 -2.324744 -9.438371 0.529738 -1.123957 -1.484507 0.000000 0.000000 0.000000 8.408893 -7.511754 89.258206 2.364878 -4.086878 0.088575 13.614100 97.546926 33.534317 0.000000 0.000000 0.000000 -7.125000 0.000000 0.000000 -10.358176 -3.822385 -11.227914 0.000000 0.000000 0.000000 -1.299707 7.297309 -26.077740 -5.964446 -10.201853 -0.534294 -20.178168 26.473198 29.821802 0.000000 0.000000 0.000000 7.125000 0.000000 0.000000 12.905088 60.929323 -5.052583
6.731558 23.978772 10.236898 -5.734966 2.682778 73.583789 0.000000 0.000000 0.000000 8.631334 -12.425247 -66.334403 1.913223 8.549979 24.474813 -0.376842 11.447372 -6.148120 2.132505 8.676262 25.145835 0.000000 0.000000 0.000000 13.048546 14.530189 -64.933285 -2.233661 -9.251566 26.645523 -0.153493 -9.371577 9.224815 -2.378912 9.381347 -27.159985 4.457322 0.804350 22.623877 0.587353 1.776532 10.895478 -2.295014 0.962377 -0.560584 -2.143743 -1.807103 -7.890266 0.387384 -2.364431 -11.310027 0.471425 -1.140705 -2.212179 0.000000 0.000000 0.000000 9.187316 -10.995066 95.398854 1.786111 -3.089464 0.051019 11.198594 104.707623 34.632625 0.000000 0.000000 0.000000 -7.125000 0.000000 0.000000 -11.791949 -4.518490 -12.968174 0.000000 0.000000 0.000000 -2.003932 4.466404 -21.301286 -6.301992 -10.764177 -0.595246 -22.607529 24.999280 29.403967 0.000000 0.000000 0.000000 7.125000 0.000000 0.000000 9.909698 61.111114 -3.907381
